<svg width="215" height="37" viewBox="0 0 215 37" fill="none" xmlns="http://www.w3.org/2000/svg">
<path d="M61.5664 19.7695H54.6992V27H51.7344V9.9375H62.5742V12.3281H54.6992V17.4023H61.5664V19.7695ZM67.6836 27H64.8359V14.3203H67.6836V27ZM64.6602 11.0273C64.6602 10.5898 64.7969 10.2266 65.0703 9.9375C65.3516 9.64844 65.75 9.50391 66.2656 9.50391C66.7812 9.50391 67.1797 9.64844 67.4609 9.9375C67.7422 10.2266 67.8828 10.5898 67.8828 11.0273C67.8828 11.457 67.7422 11.8164 67.4609 12.1055C67.1797 12.3867 66.7812 12.5273 66.2656 12.5273C65.75 12.5273 65.3516 12.3867 65.0703 12.1055C64.7969 11.8164 64.6602 11.457 64.6602 11.0273ZM73.4375 14.3203L73.5195 15.7852C74.457 14.6523 75.6875 14.0859 77.2109 14.0859C79.8516 14.0859 81.1953 15.5977 81.2422 18.6211V27H78.3945V18.7852C78.3945 17.9805 78.2188 17.3867 77.8672 17.0039C77.5234 16.6133 76.957 16.418 76.168 16.418C75.0195 16.418 74.1641 16.9375 73.6016 17.9766V27H70.7539V14.3203H73.4375ZM83.6211 20.5664C83.6211 18.6133 84.0742 17.0469 84.9805 15.8672C85.8867 14.6797 87.1016 14.0859 88.625 14.0859C89.9688 14.0859 91.0547 14.5547 91.8828 15.4922V9H94.7305V27H92.1523L92.0117 25.6875C91.1602 26.7188 90.0234 27.2344 88.6016 27.2344C87.1172 27.2344 85.9141 26.6367 84.9922 25.4414C84.0781 24.2461 83.6211 22.6211 83.6211 20.5664ZM86.4688 20.8125C86.4688 22.1016 86.7148 23.1094 87.207 23.8359C87.707 24.5547 88.4141 24.9141 89.3281 24.9141C90.4922 24.9141 91.3438 24.3945 91.8828 23.3555V17.9414C91.3594 16.9258 90.5156 16.418 89.3516 16.418C88.4297 16.418 87.7188 16.7852 87.2188 17.5195C86.7188 18.2461 86.4688 19.3438 86.4688 20.8125Z" fill="#0F89E3"/>
<path d="M111.523 27H108.57V19.418H100.941V27H97.9766V9.9375H100.941V17.0391H108.57V9.9375H111.523V27ZM122.34 27C122.215 26.7578 122.105 26.3633 122.012 25.8164C121.105 26.7617 119.996 27.2344 118.684 27.2344C117.41 27.2344 116.371 26.8711 115.566 26.1445C114.762 25.418 114.359 24.5195 114.359 23.4492C114.359 22.0977 114.859 21.0625 115.859 20.3438C116.867 19.6172 118.305 19.2539 120.172 19.2539H121.918V18.4219C121.918 17.7656 121.734 17.2422 121.367 16.8516C121 16.4531 120.441 16.2539 119.691 16.2539C119.043 16.2539 118.512 16.418 118.098 16.7461C117.684 17.0664 117.477 17.4766 117.477 17.9766H114.629C114.629 17.2812 114.859 16.6328 115.32 16.0312C115.781 15.4219 116.406 14.9453 117.195 14.6016C117.992 14.2578 118.879 14.0859 119.855 14.0859C121.34 14.0859 122.523 14.4609 123.406 15.2109C124.289 15.9531 124.742 17 124.766 18.3516V24.0703C124.766 25.2109 124.926 26.1211 125.246 26.8008V27H122.34ZM119.211 24.9492C119.773 24.9492 120.301 24.8125 120.793 24.5391C121.293 24.2656 121.668 23.8984 121.918 23.4375V21.0469H120.383C119.328 21.0469 118.535 21.2305 118.004 21.5977C117.473 21.9648 117.207 22.4844 117.207 23.1562C117.207 23.7031 117.387 24.1406 117.746 24.4688C118.113 24.7891 118.602 24.9492 119.211 24.9492ZM134.855 23.5547C134.855 23.0469 134.645 22.6602 134.223 22.3945C133.809 22.1289 133.117 21.8945 132.148 21.6914C131.18 21.4883 130.371 21.2305 129.723 20.918C128.301 20.2305 127.59 19.2344 127.59 17.9297C127.59 16.8359 128.051 15.9219 128.973 15.1875C129.895 14.4531 131.066 14.0859 132.488 14.0859C134.004 14.0859 135.227 14.4609 136.156 15.2109C137.094 15.9609 137.562 16.9336 137.562 18.1289H134.715C134.715 17.582 134.512 17.1289 134.105 16.7695C133.699 16.4023 133.16 16.2188 132.488 16.2188C131.863 16.2188 131.352 16.3633 130.953 16.6523C130.562 16.9414 130.367 17.3281 130.367 17.8125C130.367 18.25 130.551 18.5898 130.918 18.832C131.285 19.0742 132.027 19.3203 133.145 19.5703C134.262 19.8125 135.137 20.1055 135.77 20.4492C136.41 20.7852 136.883 21.1914 137.188 21.668C137.5 22.1445 137.656 22.7227 137.656 23.4023C137.656 24.543 137.184 25.4688 136.238 26.1797C135.293 26.8828 134.055 27.2344 132.523 27.2344C131.484 27.2344 130.559 27.0469 129.746 26.6719C128.934 26.2969 128.301 25.7812 127.848 25.125C127.395 24.4688 127.168 23.7617 127.168 23.0039H129.934C129.973 23.6758 130.227 24.1953 130.695 24.5625C131.164 24.9219 131.785 25.1016 132.559 25.1016C133.309 25.1016 133.879 24.9609 134.27 24.6797C134.66 24.3906 134.855 24.0156 134.855 23.5547ZM142.953 15.7031C143.883 14.625 145.059 14.0859 146.48 14.0859C149.184 14.0859 150.555 15.6289 150.594 18.7148V27H147.746V18.8203C147.746 17.9453 147.555 17.3281 147.172 16.9688C146.797 16.6016 146.242 16.418 145.508 16.418C144.367 16.418 143.516 16.9258 142.953 17.9414V27H140.105V9H142.953V15.7031ZM157.051 11.2383V14.3203H159.289V16.4297H157.051V23.5078C157.051 23.9922 157.145 24.3438 157.332 24.5625C157.527 24.7734 157.871 24.8789 158.363 24.8789C158.691 24.8789 159.023 24.8398 159.359 24.7617V26.9648C158.711 27.1445 158.086 27.2344 157.484 27.2344C155.297 27.2344 154.203 26.0273 154.203 23.6133V16.4297H152.117V14.3203H154.203V11.2383H157.051ZM169.051 27C168.926 26.7578 168.816 26.3633 168.723 25.8164C167.816 26.7617 166.707 27.2344 165.395 27.2344C164.121 27.2344 163.082 26.8711 162.277 26.1445C161.473 25.418 161.07 24.5195 161.07 23.4492C161.07 22.0977 161.57 21.0625 162.57 20.3438C163.578 19.6172 165.016 19.2539 166.883 19.2539H168.629V18.4219C168.629 17.7656 168.445 17.2422 168.078 16.8516C167.711 16.4531 167.152 16.2539 166.402 16.2539C165.754 16.2539 165.223 16.418 164.809 16.7461C164.395 17.0664 164.188 17.4766 164.188 17.9766H161.34C161.34 17.2812 161.57 16.6328 162.031 16.0312C162.492 15.4219 163.117 14.9453 163.906 14.6016C164.703 14.2578 165.59 14.0859 166.566 14.0859C168.051 14.0859 169.234 14.4609 170.117 15.2109C171 15.9531 171.453 17 171.477 18.3516V24.0703C171.477 25.2109 171.637 26.1211 171.957 26.8008V27H169.051ZM165.922 24.9492C166.484 24.9492 167.012 24.8125 167.504 24.5391C168.004 24.2656 168.379 23.8984 168.629 23.4375V21.0469H167.094C166.039 21.0469 165.246 21.2305 164.715 21.5977C164.184 21.9648 163.918 22.4844 163.918 23.1562C163.918 23.7031 164.098 24.1406 164.457 24.4688C164.824 24.7891 165.312 24.9492 165.922 24.9492ZM173.961 20.5664C173.961 18.5977 174.422 17.0273 175.344 15.8555C176.273 14.6758 177.504 14.0859 179.035 14.0859C180.48 14.0859 181.617 14.5898 182.445 15.5977L182.574 14.3203H185.141V26.6133C185.141 28.2773 184.621 29.5898 183.582 30.5508C182.551 31.5117 181.156 31.9922 179.398 31.9922C178.469 31.9922 177.559 31.7969 176.668 31.4062C175.785 31.0234 175.113 30.5195 174.652 29.8945L176 28.1836C176.875 29.2227 177.953 29.7422 179.234 29.7422C180.18 29.7422 180.926 29.4844 181.473 28.9688C182.02 28.4609 182.293 27.7109 182.293 26.7188V25.8633C181.473 26.7773 180.379 27.2344 179.012 27.2344C177.527 27.2344 176.312 26.6445 175.367 25.4648C174.43 24.2852 173.961 22.6523 173.961 20.5664ZM176.797 20.8125C176.797 22.0859 177.055 23.0898 177.57 23.8242C178.094 24.5508 178.816 24.9141 179.738 24.9141C180.887 24.9141 181.738 24.4219 182.293 23.4375V17.8594C181.754 16.8984 180.91 16.418 179.762 16.418C178.824 16.418 178.094 16.7891 177.57 17.5312C177.055 18.2734 176.797 19.3672 176.797 20.8125Z" fill="#3A3A3A"/>
<g clip-path="url(#clip0)">
<path d="M8 13.875H40" stroke="black" stroke-width="2" stroke-linecap="round" stroke-linejoin="round"/>
<path d="M8 23.125H40" stroke="black" stroke-width="2" stroke-linecap="round" stroke-linejoin="round"/>
<path d="M20 4.625L16 32.375" stroke="black" stroke-width="2" stroke-linecap="round" stroke-linejoin="round"/>
<path d="M32 4.625L28 32.375" stroke="black" stroke-width="2" stroke-linecap="round" stroke-linejoin="round"/>
</g>
<defs>
<clipPath id="clip0">
<rect width="48" height="37" fill="white"/>
</clipPath>
</defs>
</svg>
